#define bell_bitmap_width 12
#define bell_bitmap_height 13
static unsigned short bell_bitmap_bits[] = {
   0x0000, 0x0000, 0x0060, 0x0060, 0x01f8, 0x01f8, 0x01f8, 0x03fc, 0x07fe,
   0x07fe, 0x0060, 0x0060, 0x0000 };
